<svg width="194" height="150" viewBox="0 0 194 150" xmlns="http://www.w3.org/2000/svg" xmlns:xlink="http://www.w3.org/1999/xlink"><defs><path id="a" d="M0 149.668h193.842V0H0v149.668z"></path></defs><g fill="none" fill-rule="evenodd"><mask id="b" fill="#fff"><use xlink:href="#a"></use></mask><path d="M159.193 98.12l3.39-.598v-2.546l1.695-.299 1.884-.375-5.483 14.344 4.164-.734 5.65-15.345v-2.481l-11.3 1.993v6.04zm-12.323 2.582l2.219-1.922v8.414l-3.391.598v3.496l10.672-1.882v-3.495l-3.39.597V93.174l-2.929.517-5.085 4.456 1.904 2.555zm16.424-24.491c0-.907.524-1.647 1.507-1.82l.084-.015c.984-.173 1.507.382 1.507 1.288V83c0 .906-.523 1.646-1.507 1.82l-.084.014c-.983.174-1.507-.382-1.507-1.288v-7.335zm1.55 12.112c3.557-.628 5.44-3.096 5.44-6.009v-7.336c0-2.913-1.883-4.717-5.44-4.09-3.558.628-5.441 3.095-5.441 6.009v7.335c0 2.913 1.883 4.717 5.44 4.09zm-13.548-7.257l-6.069 8.04v2.524l10.882-1.919v-3.495l-3.976.7-1.465.28 3.62-4.78c1.15-1.52 1.821-2.63 1.821-4.68v-.431c0-2.071-1.277-4.5-5.441-3.766-3.683.65-5.44 2.771-5.44 6.461v.41l3.891-.686c0-1.834.628-2.527 1.445-2.671l.209-.038c.815-.144 1.444.35 1.444 1.731v.216c0 .842-.335 1.353-.921 2.104zm-22.136 53.39l-.918-3.64-2.319.409v6.59l1.557-.274v-2.535l-.04-1.26.917 3.64 1.606-.283.918-3.964-.041 1.274v2.535l1.557-.274v-6.591l-2.32.409-.917 3.964zm-5.703.667c0 1.142-.155 1.887-.893 2.017l-.082.015c-.738.13-.894-.561-.894-1.702v-.338c0-1.14.156-1.886.894-2.016l.082-.015c.738-.13.893.56.893 1.702v.337zm-.934-3.417c-1.721.303-2.516 1.406-2.516 3.688v.338c0 2.282.795 3.105 2.516 2.8 1.72-.302 2.515-1.405 2.515-3.687v-.338c0-2.282-.795-3.105-2.515-2.801zm-5.654.997c-1.72.303-2.475 1.4-2.475 3.68v.338c0 2.282.754 3.112 2.475 2.809 1.565-.276 2.377-1.044 2.377-2.743v-.076l-1.558.275c0 .591-.188 1.047-.737 1.144l-.082.015c-.779.137-.893-.562-.893-1.702v-.338c0-1.14.114-1.88.893-2.016l.082-.015c.615-.109.737.377.737 1.138l1.558-.275v-.33c0-1.698-.812-2.18-2.377-1.904zm-4.876 7.568l1.557-.274v-1.606l-1.557.275v1.605zm-4.916.868l4.015-.709v-1.385l-2.458.433v-1.285l2.049-.36v-1.386l-2.049.36v-1.148l2.458-.434v-1.385l-4.015.708v6.59zm-3.278-6.132c-1.72.304-2.474 1.4-2.474 3.681v.338c0 2.282.754 3.111 2.474 2.808 1.566-.276 2.377-1.044 2.377-2.742v-.076l-1.557.275c0 .59-.188 1.046-.737 1.143l-.083.015c-.778.137-.893-.56-.893-1.701v-.338c0-1.142.115-1.88.893-2.017l.083-.015c.614-.108.737.378.737 1.138l1.557-.274v-.33c0-1.699-.811-2.18-2.377-1.905zm-4.727 3.149c0 .625-.36.807-.664.86l-.713.126v-1.555l.713-.125c.303-.054.664.001.664.626v.068zm-.73-2.068l-2.204.388v6.591l1.557-.275v-2.264l.435-.076.835 2.116 1.68-.296-.983-2.31c.565-.362.984-.96.984-2.033v-.169c0-1.825-1.222-1.863-2.304-1.672zm-4.743 5.289c0 .524-.14.895-.82 1.015-.68.12-.82-.202-.82-.726v-4.453l-1.557.274v4.496c0 1.386.525 2.121 2.377 1.795 1.852-.327 2.377-1.248 2.377-2.633v-4.495l-1.557.274v4.453zm-5.622.003c0 1.14-.155 1.886-.893 2.016l-.082.015c-.737.13-.894-.56-.894-1.702v-.338c0-1.14.157-1.886.894-2.017l.082-.014c.738-.13.893.561.893 1.702v.338zm-.934-3.418c-1.721.303-2.516 1.407-2.516 3.688v.338c0 2.281.795 3.105 2.516 2.8 1.72-.302 2.515-1.406 2.515-3.688v-.337c0-2.282-.794-3.105-2.515-2.801zm-5.375 3.694c-.86.033-.992-.147-.992-.552v-.034c0-.338.221-.639.672-.718l.082-.015c.574-.1.778.218.778.961l1.558-.274v-.178c0-1.597-.722-2.18-2.336-1.894-1.54.27-2.336 1.214-2.336 2.44v.092c0 1.293.705 1.625 2.099 1.574.86-.033 1.032.164 1.032.544v.034c0 .321-.221.656-.754.75l-.082.014c-.533.094-.779-.15-.779-.877l-1.556.275v.076c0 1.656.82 2.18 2.376 1.905 1.565-.276 2.377-1.171 2.377-2.464v-.093c0-1.292-.747-1.618-2.14-1.566zm-4.95.61l.042 1.26-1.762-3.322-1.64.289v6.59l1.476-.26v-2.365l-.041-1.26 1.762 3.322 1.638-.29v-6.59l-1.474.26v2.366zm-8.316 5.692l4.015-.708v-1.386l-2.458.434v-1.285l2.048-.361v-1.386l-2.048.362v-1.15l2.458-.433v-1.386l-4.015.708v6.59zm-2.352-3.98c0 .626-.36.808-.664.861l-.712.126v-1.555l.712-.126c.303-.053.664.002.664.627v.068zm-.73-2.067l-2.203.388v6.59l1.557-.274v-2.265l.647-.114c1.082-.19 2.302-.66 2.302-2.484v-.17c0-1.824-1.22-1.863-2.302-1.671zm-4.67 4.287c0 1.14-.155 1.886-.893 2.016l-.082.015c-.737.13-.893-.56-.893-1.701v-.338c0-1.14.156-1.887.893-2.016l.082-.015c.738-.13.893.56.893 1.701v.338zm-.934-3.418c-1.72.304-2.516 1.407-2.516 3.688v.339c0 2.28.795 3.104 2.516 2.8 1.72-.303 2.516-1.406 2.516-3.688v-.338c0-2.28-.795-3.104-2.516-2.8zm71.124-18.336l-1.557.274v-2.535l-1.558.275v6.59l1.558-.274v-2.67l1.557-.275v2.67l1.557-.274v-6.591l-1.557.275v2.535zm-3.852-1.856l-4.424.78v1.385l1.434-.252v5.205l1.557-.274v-5.205l1.433-.253v-1.386zm-5.202.918l-1.557.274v6.59l1.557-.274v-6.59zm-4.425 5.157l-.721-4.25-1.918.337-.721 4.505-.491-4.29-1.623.286 1.016 6.41 1.975-.347.803-4.89.795 4.608 1.983-.35 1.016-6.77-1.622.286-.492 4.465zm-10.636-1.117l.712-.125c.304-.054.664.001.664.626v.068c0 .625-.36.807-.664.86l-.712.126v-1.555zm2.95.342v-.169c0-1.825-1.221-1.863-2.303-1.673l-2.204.39v6.59l1.557-.275v-2.264l.647-.114c1.082-.19 2.303-.66 2.303-2.485zm-5.573-1.264l-1.557.274v6.59l1.557-.274v-6.59zm-7.293 1.285v6.59l1.558-.273v-2.67l1.557-.276v2.67l1.557-.274v-6.59l-1.557.274v2.535l-1.557.274v-2.534l-1.558.274zm-2.998 3.157c-.86.033-.991-.147-.991-.552v-.034c0-.338.221-.639.671-.719l.082-.014c.575-.1.78.218.78.962l1.556-.275v-.178c0-1.596-.721-2.179-2.336-1.895-1.54.272-2.335 1.215-2.335 2.44v.093c0 1.292.704 1.625 2.098 1.573.86-.033 1.032.165 1.032.545v.034c0 .321-.22.656-.753.75l-.083.015c-.532.093-.778-.151-.778-.878l-1.557.275v.076c0 1.657.82 2.18 2.376 1.905 1.566-.276 2.377-1.171 2.377-2.464v-.093c0-1.293-.746-1.617-2.139-1.566zm-4.924.437c0 .626-.361.808-.664.86l-.713.127v-1.555l.713-.126c.303-.053.664.002.664.627v.067zm1.573-.226v-.17c0-1.825-1.221-1.863-2.303-1.672l-2.204.389v6.59l1.557-.274v-2.265l.434-.077.836 2.118 1.68-.296-.983-2.311c.565-.362.983-.96.983-2.032zm-5.449.099v-1.386l-4.015.708v6.59l4.015-.707v-1.386l-2.458.433v-1.284l2.049-.361v-1.386l-2.05.36v-1.148l2.46-.433zm-5.039-.498l-1.475.26v2.366l.04 1.26-1.761-3.322-1.639.288v6.591l1.475-.26v-2.366l-.041-1.26 1.762 3.323 1.64-.29v-6.59zm-5.572.983l-4.425.78v1.386l1.433-.253v5.204l1.558-.274V133.5l1.434-.253v-1.385zm-6.474 3.338c0 .626-.36.807-.663.86l-.713.126v-1.554l.713-.126c.303-.054.663 0 .663.626v.068zm.59 1.806c.566-.362.984-.96.984-2.032v-.17c0-1.825-1.221-1.863-2.303-1.672l-2.204.388v6.59l1.557-.273v-2.265l.434-.077.836 2.118 1.68-.297-.983-2.31zm-7.194 1.031l.394-2.08.392 1.942-.786.138zm1.459-4.126l-2.13.375-1.525 6.86 1.671-.295.255-1.38 1.328-.234.261 1.289 1.664-.293-1.524-6.322zm-5.482 3.163c0 .625-.36.807-.664.86l-.713.126v-1.555l.713-.125c.303-.053.664 0 .664.627v.067zm1.573-.227v-.169c0-1.825-1.22-1.863-2.302-1.673l-2.204.39v6.59l1.556-.274v-2.265l.648-.114c1.081-.191 2.302-.66 2.302-2.485zm-8.85 1.679l.042 1.26-1.762-3.322-1.639.288v6.591l1.475-.26v-2.366l-.041-1.26 1.762 3.323 1.639-.29v-6.59l-1.476.26v2.366zm-5.981 5.28l1.557-.275v-6.59l-1.557.273v6.591zM9.46 100.508v17.18l10.875-1.918v-17.18l-10.875 1.918zm115.655 3.992c0 .255-.086.485-.255.689-.17.205-.378.33-.624.373l-6.433 1.134c-.248.044-.448-.008-.603-.157-.154-.147-.23-.348-.23-.603V82.412c0-.255-.086-.447-.256-.576-.17-.13-.377-.172-.624-.129l-9.164 1.616c-.247.043-.455.16-.625.349a.969.969 0 0 0-.254.665v23.526c0 .605-.294.958-.88 1.062l-6.386 1.126c-.587.104-.88-.147-.88-.751V77.708c0-.604.293-.958.88-1.061l20.919-3.69a4.722 4.722 0 0 1 2.105.083 4.45 4.45 0 0 1 1.713.892c.15.128.289.268.42.418l.021.024c.28.324.519.695.715 1.12.294.632.441 1.33.441 2.092v26.915zM90.544 85.02a.962.962 0 0 1-.255.665c-.17.19-.378.306-.625.349L74.16 88.766c-.154.028-.23.12-.23.28v5.201c0 .128.076.178.23.15l13.191-2.325a.725.725 0 0 1 .624.152c.17.145.256.345.256.6v4.771c0 .605-.294.959-.88 1.062l-13.19 2.326c-.155.027-.231.12-.231.28v5.153c0 .16.076.226.23.198l15.504-2.733a.722.722 0 0 1 .625.151c.17.146.255.346.255.6v5.965c0 .255-.086.485-.255.688a1.02 1.02 0 0 1-.625.374L71.2 114.915c-.74.13-1.443.11-2.106-.06a4.245 4.245 0 0 1-1.736-.886 4.336 4.336 0 0 1-1.157-1.586 5.171 5.171 0 0 1-.417-2.097V88.05c0-.764.14-1.511.417-2.245a6.68 6.68 0 0 1 1.157-1.97 7.584 7.584 0 0 1 1.736-1.499 5.797 5.797 0 0 1 2.106-.825l18.465-3.256c.247-.043.455.009.625.153.17.145.255.344.255.599v6.013zM65.32 74.84c-.587.103-.88-.147-.88-.752V42.5c0-.604.293-.959.88-1.063l6.387-1.126c.585-.102.88.149.88.753v31.59c0 .605-.295.958-.88 1.062L65.32 74.84zm-4.766 26.775c0 .764-.147 1.514-.44 2.25a7.29 7.29 0 0 1-1.157 1.968 7.177 7.177 0 0 1-1.712 1.496 5.805 5.805 0 0 1-2.107.824l-10.32 1.82c-.247.044-.455.16-.625.349a.964.964 0 0 0-.254.666v7.825c0 .605-.294.959-.88 1.063l-6.386 1.126c-.586.103-.88-.147-.88-.753V88.66c0-.604.294-.959.88-1.062l18.465-3.256a4.717 4.717 0 0 1 2.107.082 4.436 4.436 0 0 1 1.712.892c.479.41.863.929 1.157 1.561.293.633.44 1.33.44 2.093v12.646zM29.87 80.186V48.594c0-.604.293-.959.88-1.063l6.386-1.126c.586-.103.88.148.88.753v10.688c0 .605.293.855.879.752l9.164-1.616a.939.939 0 0 0 .601-.368 1.1 1.1 0 0 0 .23-.685V45.24c0-.254.085-.483.256-.689a1.02 1.02 0 0 1 .624-.372l6.434-1.134c.246-.044.455.007.625.152.169.145.253.345.253.6v31.59c0 .255-.084.484-.253.688-.17.206-.38.33-.625.373l-6.434 1.135c-.246.043-.455-.007-.624-.153-.17-.144-.255-.344-.255-.599V65.808c0-.254-.077-.448-.23-.58-.156-.132-.356-.176-.602-.133l-9.164 1.616c-.247.043-.455.16-.625.349a.965.965 0 0 0-.254.665v11.023c0 .606-.294.959-.88 1.063l-6.387 1.126c-.586.103-.88-.147-.88-.752zm163.658-1.098l-7.934-10.585c.102-.424.17-.85.17-1.284v-8.398c0-.715-.139-1.36-.413-1.937a4.76 4.76 0 0 0-.537-.866c-.041-.059-4.74-6.612-4.785-6.67l-.007-.012 3.965-.699c.23-.04.426-.149.585-.326a.906.906 0 0 0 .238-.623v-5.495c0-.232-.05-.405-.143-.525l.003-.002-12.613-18.527a.327.327 0 0 0-.07-.081c.062.12.103.265.103.46v5.869a.963.963 0 0 1-.255.665 1.07 1.07 0 0 1-.625.35l-14.764 2.602a.936.936 0 0 0-.6.369c-.156.202-.232.43-.232.685v3.865c0 .255.076.456.232.603.153.148.354.2.6.157l11.246-1.983a4.95 4.95 0 0 1 2.106.058c.664.17 1.235.466 1.714.89.477.425.862.945 1.156 1.563.293.616.44 1.306.44 2.069v8.971c0 .763-.147 1.513-.44 2.249a7.726 7.726 0 0 1-1.156 1.994 6.567 6.567 0 0 1-1.714 1.495 6.042 6.042 0 0 1-2.106.8l-18.466 3.257c-.585.103-.879-.147-.879-.752V53.52c0-.253.085-.483.255-.688.17-.205.378-.329.624-.372l15.736-2.775c.247-.043.456-.16.625-.35a.96.96 0 0 0 .254-.664v-3.962c0-.254-.084-.454-.254-.598-.169-.145-.378-.197-.625-.153l-11.199 1.975c-.74.13-1.443.111-2.106-.058a4.233 4.233 0 0 1-1.735-.887 4.375 4.375 0 0 1-1.158-1.56c-.278-.621-.417-1.312-.417-2.075v-1.67l-.075-.113-8.635-10.7s-.031-.04-.052-.057c.07.118.108.255.108.417v6.3c0 .255-.086.485-.255.689-.17.205-.377.329-.624.372l-15.504 2.734c-.247.044-.455.16-.625.349a.968.968 0 0 0-.254.665v15.461c0 .255.085.447.254.576.17.13.378.172.625.128l9.164-1.616a1 1 0 0 0 .832-1.006v-8.35c0-.255.084-.484.254-.69.17-.204.379-.328.625-.372l6.434-1.134c.246-.044.455.007.625.152.169.145.254.345.254.6v11.738c0 .763-.147 1.514-.44 2.249a7.666 7.666 0 0 1-1.157 1.994 6.557 6.557 0 0 1-1.712 1.494 6.068 6.068 0 0 1-2.105.801l-16.384 2.89c-.74.13-1.443.11-2.106-.06a4.232 4.232 0 0 1-1.735-.886 4.342 4.342 0 0 1-1.158-1.586 5.177 5.177 0 0 1-.416-2.097V45.289l-8.313-8.755-.002-.001-.05-.053c.275.314.514.671.706 1.085.293.633.44 1.33.44 2.094v26.914c0 .255-.085.485-.255.689-.17.205-.378.33-.625.373l-6.432 1.134c-.248.044-.449-.008-.602-.157-.156-.146-.231-.348-.231-.603V44.484c0-.255-.086-.446-.255-.576-.17-.129-.378-.172-.625-.129l-9.162 1.616c-.25.044-.457.16-.626.349a.966.966 0 0 0-.254.665v23.526c0 .605-.294.959-.88 1.062l-6.388 1.126c-.585.104-.88-.147-.88-.751v-31.59c0-.605.295-.96.88-1.062l15.785-2.783-7.017-7.152v-8.157c0-.262-.067-.444-.188-.56h.002L70.269.09 70.26.082 70.248.07v.003a.441.441 0 0 0-.09-.071V0a.953.953 0 0 1 .114.48v23.525c0 .255.086.447.255.576.17.13.378.171.625.128L83 22.619c.247-.043.447.01.602.157.154.148.231.35.231.603v6.3c0 .255-.077.483-.231.685a.94.94 0 0 1-.602.368l-19.993 3.526c-.587.103-.88-.147-.88-.752V21.937c-.024-.042-.087-.11-.087-.11L44.025 4.696v-.001l-.003-.003a.5.5 0 0 0-.114-.08c.074.126.124.28.124.494v23.526c0 .255.085.447.255.575.169.13.377.172.625.129l11.847-2.09c.246-.043.448.01.602.157.155.148.232.35.232.604v6.299c0 .255-.077.483-.232.684a.94.94 0 0 1-.602.37l-19.993 3.524c-.586.104-.88-.147-.88-.751V16.798s-8.684-7.746-8.69-7.75a.309.309 0 0 0-.052-.036c.4.384.732.848.99 1.403.295.632.441 1.33.441 2.094v26.913c0 .256-.086.485-.255.689-.17.205-.377.33-.624.373l-6.433 1.134c-.248.044-.456-.007-.625-.153-.17-.144-.255-.343-.255-.599v-8.541c0-.255-.077-.456-.231-.604-.155-.147-.356-.2-.602-.156l-9.164 1.616a1.023 1.023 0 0 0-.625.372 1.05 1.05 0 0 0-.254.69v8.541c0 .605-.294.959-.88 1.062l-6.386 1.126a.911.911 0 0 1-.488-.035v.001a.52.52 0 0 0 .094.093h-.003l.01.007.002.002 8.287 6.073c.065.05.128.03.128.03l13.167-2.322a.723.723 0 0 1 .625.154c.169.145.255.344.255.599v6.298c0 .255-.086.485-.255.69-.171.205-.378.329-.625.372l-6.572 1.16a1.07 1.07 0 0 0-.626.348.968.968 0 0 0-.254.665v23.526c0 .255-.077.484-.231.685a.937.937 0 0 1-.601.368L8.72 84.821a.767.767 0 0 1-.414-.033c.006.01.011.019.02.026l9.417 5.995c.055.047.12.068.182.095l5.19-.915a4.7 4.7 0 0 1 2.105.082 4.442 4.442 0 0 1 1.712.891c.478.41.864.93 1.158 1.562.291.634.438 1.331.438 2.094v22.237c0 .763-.147 1.514-.438 2.249a7.709 7.709 0 0 1-1.158 1.994 6.565 6.565 0 0 1-1.712 1.494 6.06 6.06 0 0 1-2.105.802L6.73 126.282c-.74.13-1.442.11-2.106-.058a4.441 4.441 0 0 1-.81-.304c.075.042 23.168 11.978 23.247 12.015.305.17.627.31.985.401a4.637 4.637 0 0 0 1.972.055l15.336-2.704a5.665 5.665 0 0 0 1.97-.75 6.146 6.146 0 0 0 1.603-1.398 7.208 7.208 0 0 0 1.085-1.867 5.66 5.66 0 0 0 .41-2.105v-.306c.02.018 7.074 4.12 7.074 4.12v-.002c.132.085.313.112.552.07l5.978-1.054c.549-.097.824-.428.824-.994v-7.326c0-.238.079-.445.237-.623a.998.998 0 0 1 .586-.326l9.66-1.704a5.428 5.428 0 0 0 1.972-.772c.017-.011.031-.025.049-.036l.012.007.188.125.004.002.003.003 9.81 6.512c.315.183.65.337 1.024.433a4.633 4.633 0 0 0 1.971.054l17.286-3.048a.951.951 0 0 0 .584-.349c.16-.19.24-.405.24-.644v-5.994c.02.02 7.185 5.424 7.185 5.424.13.075.302.098.526.059l5.979-1.055c.548-.096.823-.428.823-.993v-9.842l9.315 7.676c.027.026.06.039.093.054V72.614c0-1.171.921-2.284 2.057-2.484l45.305-7.989c1.137-.2 2.059.587 2.059 1.759v46.74c0 1.172-.922 2.285-2.059 2.485l-45.305 7.988a1.843 1.843 0 0 1-.911-.06c.026.021.052.044.08.065.023.021.048.04.071.058l14.611 11.979v-.003c.347.292.816.43 1.341.339l42.276-7.455c1.06-.187 1.92-1.225 1.92-2.318V80.104c0-.397-.118-.742-.314-1.016zM20.383 15.861L9.507 17.78v8.399l10.876-1.918V15.86zM7.841 60.543c0-.254-.077-.446-.231-.58-.156-.13-.356-.175-.603-.131L.437 60.99A.752.752 0 0 1 0 60.936c.018.02.026.045.047.063.016.014 7.781 5.335 7.794 5.344v-5.8zM43.662 102.4l9.025-1.592v-8.445l-9.025 1.591v8.446z" fill="#ca0000" mask="url(#b)" style=""></path></g></svg>